<?xml version="1.0" standalone="no"?>
<!DOCTYPE svg PUBLIC "-//W3C//DTD SVG 20010904//EN"
 "http://www.w3.org/TR/2001/REC-SVG-20010904/DTD/svg10.dtd">
<svg version="1.0" xmlns="http://www.w3.org/2000/svg"
 width="512.000000pt" height="512.000000pt" viewBox="0 0 512.000000 512.000000"
 preserveAspectRatio="xMidYMid meet">
<metadata>
Created by potrace 1.11, written by Peter Selinger 2001-2013
</metadata>
<g transform="translate(0.000000,512.000000) scale(0.100000,-0.100000)"
fill="#000000" stroke="none">
<path d="M1351 3816 c-53 -29 -50 27 -51 -1254 0 -1096 1 -1196 17 -1222 9
-16 27 -33 40 -39 17 -8 380 -11 1214 -11 1304 0 1233 -3 1259 59 28 69 76 17
-1184 1277 -649 650 -1191 1186 -1203 1192 -28 15 -62 15 -92 -2z"/>
<path d="M2785 2780 c572 -572 1041 -1040 1042 -1040 2 0 3 63 3 139 l0 140
-901 900 -900 901 -142 0 -142 0 1040 -1040z"/>
<path d="M2350 3816 c0 -3 332 -337 738 -742 l737 -738 3 139 3 139 -603 603
-603 603 -137 0 c-76 0 -138 -2 -138 -4z"/>
<path d="M3380 3375 c245 -245 446 -445 447 -445 2 0 3 62 3 138 l0 139 -307
306 -307 307 -140 0 -141 0 445 -445z"/>
<path d="M3680 3675 c80 -80 146 -145 147 -145 2 0 3 65 3 145 l0 145 -147 0
-148 0 145 -145z"/>
</g>
</svg>
